<?xml version="1.0" encoding="iso-8859-1"?>
<!-- Generator: Adobe Illustrator 19.0.0, SVG Export Plug-In . SVG Version: 6.00 Build 0)  -->
<svg version="1.1" id="Layer_1" xmlns="http://www.w3.org/2000/svg" xmlns:xlink="http://www.w3.org/1999/xlink" x="0px" y="0px"
	 viewBox="0 0 512 512" style="enable-background:new 0 0 512 512;" xml:space="preserve">
<circle style="fill:#D9E6E8;" cx="256" cy="256" r="256"/>
<path style="fill:#263740;" d="M256,124c-4.4,0-9.608-3.22-11.58-7.156l-8.848-17.688C233.608,95.22,228.4,92,224,92H124
	c-8,0-16,8-16,16v8c0,4.4,0,11.6,0,16v228c0,4.4,11.6,16,16,16h264c4.4,0,16-11.6,16-16V140c0-12-4-16-16-16H256z"/>
<path style="fill:#1E2C33;" d="M388,124h-16c12,0,16,4,16,16v220c0,4.4-11.6,16-16,16h16c4.4,0,16-11.6,16-16V140
	C404,128,400,124,388,124z"/>
<path style="fill:#F5F5F5;" d="M380,208c0,8.8-7.2,16-16,16H148c-8.8,0-16-7.2-16-16v-48c0-8.8,7.2-16,16-16h216c8.8,0,16,7.2,16,16
	V208z"/>
<path style="fill:#F8CF25;" d="M388,188H124c-8,0-16,8-16,16v156c0,8,8,16,16,16h264c8,0,16-8,16-16V204C404,196,396,188,388,188z"
	/>
<path style="fill:#EFC822;" d="M388,188h-16c8,0,16,8,16,16v156c0,8-8,16-16,16h16c8,0,16-8,16-16V204C404,196,396,188,388,188z"/>
<path style="fill:#D9E6E8;" d="M372,412c-37.496,0-68-30.504-68-68s30.504-68,68-68s68,30.504,68,68S409.496,412,372,412z"/>
<circle style="fill:#E16B5A;" cx="372" cy="344" r="52"/>
<path style="fill:#F5F5F5;" d="M400,348h-56c-2.212,0-4-1.792-4-4s1.788-4,4-4h56c2.212,0,4,1.792,4,4S402.212,348,400,348z"/>
<g>
</g>
<g>
</g>
<g>
</g>
<g>
</g>
<g>
</g>
<g>
</g>
<g>
</g>
<g>
</g>
<g>
</g>
<g>
</g>
<g>
</g>
<g>
</g>
<g>
</g>
<g>
</g>
<g>
</g>
</svg>
