<?xml version="1.0" encoding="iso-8859-1"?>
<!-- Generator: Adobe Illustrator 19.0.0, SVG Export Plug-In . SVG Version: 6.00 Build 0)  -->
<svg version="1.1" id="Layer_1" xmlns="http://www.w3.org/2000/svg" xmlns:xlink="http://www.w3.org/1999/xlink" x="0px" y="0px"
	 viewBox="0 0 512 512" style="enable-background:new 0 0 512 512;" xml:space="preserve">
<circle style="fill:#D9E6E8;" cx="256" cy="256" r="256"/>
<path style="fill:#263740;" d="M256,140c-4.4,0-9.608-3.22-11.58-7.156l-8.844-17.688C233.608,111.22,228.4,108,224,108H124
	c-8,0-16,8-16,16v8c0,4.4,0,11.6,0,16v228c0,4.4,11.6,16,16,16h264c4.4,0,16-11.6,16-16V156c0-12-4-16-16-16H256z"/>
<path style="fill:#1E2C33;" d="M388,140h-16c12,0,16,4,16,16v220c0,4.4-11.6,16-16,16h16c4.4,0,16-11.6,16-16V156
	C404,144,400,140,388,140z"/>
<path style="fill:#F5F5F5;" d="M380,224c0,8.8-7.2,16-16,16H148c-8.8,0-16-7.2-16-16v-48c0-8.8,7.2-16,16-16h216c8.8,0,16,7.2,16,16
	V224z"/>
<path style="fill:#F8CF25;" d="M388,204H124c-8,0-16,8-16,16v156c0,8,8,16,16,16h264c8,0,16-8,16-16V220C404,212,396,204,388,204z"
	/>
<path style="fill:#EFC822;" d="M388,204h-16c8,0,16,8,16,16v156c0,8-8,16-16,16h16c8,0,16-8,16-16V220C404,212,396,204,388,204z"/>
<path style="fill:#D9E6E8;" d="M372,428c-37.496,0-68-30.504-68-68s30.504-68,68-68s68,30.504,68,68S409.496,428,372,428z"/>
<circle style="fill:#2D4452;" cx="372" cy="360" r="52"/>
<g>
	<path style="fill:#F5F5F5;" d="M372,392c-2.212,0-4-1.788-4-4v-56c0-2.212,1.788-4,4-4s4,1.788,4,4v56
		C376,390.212,374.212,392,372,392z"/>
	<path style="fill:#F5F5F5;" d="M392,356c-1.024,0-2.048-0.392-2.828-1.172L372,337.656l-17.172,17.172
		c-1.564,1.564-4.092,1.564-5.656,0s-1.564-4.092,0-5.656l20-20c1.564-1.564,4.092-1.564,5.656,0l20,20
		c1.564,1.564,1.564,4.092,0,5.656C394.048,355.608,393.024,356,392,356z"/>
</g>
<g>
</g>
<g>
</g>
<g>
</g>
<g>
</g>
<g>
</g>
<g>
</g>
<g>
</g>
<g>
</g>
<g>
</g>
<g>
</g>
<g>
</g>
<g>
</g>
<g>
</g>
<g>
</g>
<g>
</g>
</svg>
