<?xml version="1.0" encoding="iso-8859-1"?>
<!-- Generator: Adobe Illustrator 19.0.0, SVG Export Plug-In . SVG Version: 6.00 Build 0)  -->
<svg version="1.1" id="Layer_1" xmlns="http://www.w3.org/2000/svg" xmlns:xlink="http://www.w3.org/1999/xlink" x="0px" y="0px"
	 viewBox="0 0 512 512" style="enable-background:new 0 0 512 512;" xml:space="preserve">
<circle style="fill:#D9E6E8;" cx="256" cy="256" r="256"/>
<path style="fill:#E6E6E6;" d="M232,132c-4.4,0-9.608-3.22-11.58-7.156l-8.844-17.688C209.608,103.22,204.4,100,200,100H92
	c-4.4,0-8,3.6-8,8v16c0,4.4,0,11.6,0,16v220c0,4.4,3.6,8,8,8h360c4.4,0,8-3.6,8-8V140c0-4.4-3.6-8-8-8H232z"/>
<g>
	<path style="fill:#CCCCCC;" d="M203.58,107.156l8.844,17.688C214.392,128.78,219.6,132,224,132h8c-4.4,0-9.608-3.22-11.58-7.156
		l-8.844-17.688C209.608,103.22,204.4,100,200,100h-8C196.4,100,201.608,103.22,203.58,107.156z"/>
	<path style="fill:#CCCCCC;" d="M452,132h-8c4.4,0,8,3.6,8,8v220c0,4.4-3.6,8-8,8h8c4.4,0,8-3.6,8-8V140
		C460,135.6,456.4,132,452,132z"/>
	<path style="fill:#CCCCCC;" d="M452,180v180c0,4.4-3.6,8-8,8h8c4.4,0,8-3.6,8-8V180H452z"/>
	<path style="fill:#CCCCCC;" d="M436,148H216c-4.4,0-9.608-3.22-11.58-7.156l-8.844-17.688C193.608,119.22,188.4,116,184,116H84v8
		c0,4.4,0,11.6,0,16v220c0,4.4,3.6,8,8,8h352V156C444,151.6,440.4,148,436,148z"/>
</g>
<path style="fill:#263740;" d="M208,156c-4.4,0-9.608-3.22-11.58-7.156l-8.844-17.688C185.608,127.22,180.4,124,176,124H68
	c-4.4,0-8,3.6-8,8v16c0,4.4,0,11.6,0,16v220c0,4.4,3.6,8,8,8h360c4.4,0,8-3.6,8-8V164c0-4.4-3.6-8-8-8H208z"/>
<g>
	<path style="fill:#1E2C33;" d="M179.58,131.156l8.844,17.688C190.392,152.78,195.6,156,200,156h8c-4.4,0-9.608-3.22-11.58-7.156
		l-8.844-17.688C185.608,127.22,180.4,124,176,124h-8C172.4,124,177.608,127.22,179.58,131.156z"/>
	<path style="fill:#1E2C33;" d="M428,156h-8c4.4,0,8,3.6,8,8v220c0,4.4-3.6,8-8,8h8c4.4,0,8-3.6,8-8V164
		C436,159.6,432.4,156,428,156z"/>
	<rect x="80" y="180" style="fill:#1E2C33;" width="348" height="208"/>
</g>
<rect x="84" y="184" style="fill:#E6E6E6;" width="340" height="200"/>
<rect x="92" y="192" style="fill:#FFFFFF;" width="324" height="184"/>
<path style="fill:#F8CF25;" d="M168,204l-68,68v120h328c4.4,0,8-3.6,8-8V204H168z"/>
<g>
	<path style="fill:#EFC822;" d="M428,204v180c0,4.4-3.6,8-8,8h8c4.4,0,8-3.6,8-8V204H428z"/>
	<polygon style="fill:#EFC822;" points="172,276 100,276 100,272 168,204 172,204 	"/>
</g>
<polygon style="fill:#F8DB63;" points="168,272 100,272 168,204 "/>
<g>
</g>
<g>
</g>
<g>
</g>
<g>
</g>
<g>
</g>
<g>
</g>
<g>
</g>
<g>
</g>
<g>
</g>
<g>
</g>
<g>
</g>
<g>
</g>
<g>
</g>
<g>
</g>
<g>
</g>
</svg>
